<?xml version="1.0" encoding="UTF-8"?>
<svg id="_Ñëîé_1" data-name="Ñëîé 1" xmlns="http://www.w3.org/2000/svg" viewBox="0 0 3109.58 2000">
  <defs>
    <style>
      .cls-1 {
        fill: #060633;
      }

      .cls-1, .cls-2, .cls-3, .cls-4, .cls-5, .cls-6, .cls-7, .cls-8, .cls-9, .cls-10, .cls-11, .cls-12, .cls-13, .cls-14, .cls-15, .cls-16, .cls-17, .cls-18, .cls-19, .cls-20 {
        stroke-width: 0px;
      }

      .cls-2 {
        fill: #ea6868;
      }

      .cls-3 {
        fill: #0b0755;
      }

      .cls-4 {
        fill: #dde7fe;
      }

      .cls-5 {
        fill: #3948d3;
      }

      .cls-6 {
        fill: #f78181;
      }

      .cls-7 {
        fill: #bdd1f9;
      }

      .cls-8 {
        fill: #485f73;
      }

      .cls-9 {
        fill: #fb9391;
      }

      .cls-10 {
        fill: #2fa0a4;
      }

      .cls-11 {
        fill: #fff;
      }

      .cls-12 {
        fill: #7090e0;
      }

      .cls-13 {
        fill: #91b5f8;
      }

      .cls-14 {
        fill: #37978b;
      }

      .cls-15 {
        fill: #1abc9c;
      }

      .cls-16 {
        fill: #050521;
      }

      .cls-17 {
        fill: #4851ec;
      }

      .cls-18 {
        fill: #acc7f9;
      }

      .cls-19 {
        fill: #dd4e4e;
      }

      .cls-20 {
        fill: #7c9af2;
      }
    </style>
  </defs>
  <rect class="cls-11" x="0" y="0" width="3109.58" height="2000"/>
  <g>
    <path class="cls-4" d="m2610.65,1862.62h82.62c170.08,0,273.19-209.31,301.8-376.98,34.74-203.58,13.44-545.02-208.54-637.15-50.26-20.86-103.96-32.42-154.45-52.72-259.76-104.45-229.74-361.59-400.04-539.41-360.04-375.96-843.63-12.3-1239.45,52.7-247.15,40.59-528.31-19.75-730.27,167.19-92.17,85.32-142.73,208.44-160.76,332.73-49.22,339.32,69.93,702.95,332.84,927.61,80.28,68.59,192.18,132.82,291.18,96.11l1885.06,29.92Z"/>
    <ellipse class="cls-7" cx="1593.32" cy="1842.92" rx="1306.57" ry="74.55"/>
    <g>
      <path class="cls-7" d="m2613.35,582.12c40.45,8.36,76.89,37.57,81.04,101.11,3.93,60.15-28.93,119.69-12.68,179.27,16.68,61.15,64.29,82.08,46.91,157.72-6.19,26.94-16.16,53.2-15.66,81.48,1.06,59.27,42.46,95.46,62.69,141.95,26.11,60,16.44,142.67-18.32,191.97-66.1,93.75-178.2,60.08-261.58,51.2-48.44-5.16-92.14-39.82-104.26-110.12-14.06-81.61,22.76-120.94,45.77-185.48,22.4-62.81-5.17-136.78-5.84-206.95-.74-78.44,44.59-121.5,52.91-193.58,6.02-52.12-14.99-105.81,5.91-155.05,11.07-26.07,31.56-42.17,52.67-49.16,20.93-6.93,46.38-9.33,70.42-4.36Z"/>
      <rect class="cls-13" x="2584.63" y="957.69" width="9.65" height="740.24"/>
      <rect class="cls-13" x="2544.01" y="1103.01" width="9.65" height="195.44" transform="translate(-268.48 1168.03) rotate(-24.56)"/>
      <rect class="cls-13" x="2559.42" y="1355.69" width="140.04" height="9.65" transform="translate(10.79 2741.67) rotate(-55.17)"/>
      <path class="cls-13" d="m2490.19,1670.67h194.11v145.19c0,4.48-3.64,8.12-8.12,8.12h-177.86c-4.48,0-8.12-3.64-8.12-8.12v-145.19h0Z"/>
    </g>
    <polygon class="cls-3" points="1061.38 1645.68 1013.18 1811.92 973.28 1811.92 988.24 1645.68 1061.38 1645.68"/>
    <polygon class="cls-3" points="844.12 1635.82 795.91 1802.05 756.01 1802.05 770.98 1635.82 844.12 1635.82"/>
    <path class="cls-15" d="m2267.02,1152.8l-27.54-72.06c-13.73-35.93-48.2-59.66-86.66-59.66H676.58c-56.83,0-99.97,51.18-90.36,107.19l69.12,402.75c12.5,72.81,75.63,126.03,149.51,126.03h1476.67l156.41-466.32h-115.8c-24.45,0-46.37-15.09-55.1-37.93Z"/>
    <path class="cls-14" d="m825.57,1190.43c-24.45,0-46.37-15.09-55.1-37.93l-27.54-72.06c-12.54-32.82-42.42-55.41-76.81-59.07-51.55,5.82-88.91,54.08-79.9,106.6l69.12,402.75c12.49,72.81,75.63,126.03,149.5,126.03h298.51l-161.98-466.32h-115.8Z"/>
    <path class="cls-10" d="m2269.53,1657.04h-1184.52c-70.86,0-133.15-48.26-152.64-118.27l-73.25-263.06c-10.24-36.78,10.47-75.12,46.26-85.64,35.8-10.53,73.1,10.76,83.34,47.54l62.71,225.2c9.18,32.98,38.52,55.71,71.9,55.71h1109.16c32.48,0,61.25-21.54,71.19-53.32l71.94-229.76c11.41-36.42,49.37-56.43,84.81-44.72,35.44,11.71,54.92,50.73,43.52,87.15l-83.28,265.99c-21.12,67.45-82.19,113.18-151.14,113.18Z"/>
    <path class="cls-14" d="m1056.26,1439.11h1235.27c2.96,0,5.37,2.4,5.37,5.37v117.5c0,2.96-2.4,5.37-5.37,5.37h-1235.27c-2.96,0-5.37-2.4-5.37-5.37v-117.5c0-2.96,2.4-5.37,5.37-5.37Z"/>
    <g>
      <path class="cls-9" d="m2326.33,1703.95s-.99,68.97-.46,69.96c.54.99-5.03,9.62-5.03,9.62l-21.76,3.9-19.86-9.13s1.75-64.12-.33-74.23c-2.08-10.11,47.43-.11,47.43-.11Z"/>
      <path class="cls-3" d="m2279.23,1778.3s25.08,8.77,46.51-5.74c0,0,83.5,31.29,80.95,55.09,0,0,3.55,7.09-32.62,5.56-36.18-1.53-92.4-3.14-93.91-3.98-1.51-.83-8.59,2.99-.93-50.93Z"/>
      <path class="cls-9" d="m2115.66,1703.95s-.99,68.97-.46,69.96c.54.99-5.03,9.62-5.03,9.62l-21.76,3.9-19.86-9.13s1.75-64.12-.33-74.23c-2.08-10.11,47.43-.11,47.43-.11Z"/>
      <path class="cls-3" d="m2068.56,1778.3s25.08,8.77,46.51-5.74c0,0,83.5,31.29,80.95,55.09,0,0,3.55,7.09-32.62,5.56-36.18-1.53-92.4-3.14-93.91-3.98-1.51-.83-8.59,2.99-.93-50.93Z"/>
      <g>
        <g>
          <path class="cls-2" d="m1914.18,899.1s6.55-7.86,10.61-3.92c10.34,10.04-2.22,20.1-10.04,21.78l-.57-17.87Z"/>
          <path class="cls-9" d="m1920.14,868.12h-.07c.13-.88.26-1.77.36-2.66,4.39-39.71-25.59-75.3-66.16-77.1-33.8-1.5-64.21,22.17-71.02,55.32-2.53,12.3-1.66,24.35,1.86,35.32,4.62,16.87,8.72,31.32,13.42,43.48,7.77,20.1,8.49,42.24,2.58,62.97l-4.64,16.3c39.97,27.3,61.66,8.41,61.66,8.41l4.15-30.4c.54-3.97,4.04-6.82,8.04-6.64.02,0,.05,0,.07,0,53.04,2.38,47.13-81.27,49.75-105Z"/>
          <path class="cls-16" d="m1844.94,896.53c.39-3.55-2.17-6.75-5.72-7.14-3.55-.39-6.75,2.17-7.14,5.72-.39,3.55,2.17,6.75,5.72,7.14,3.55.39,6.75-2.17,7.14-5.72Z"/>
          <path class="cls-16" d="m1903.37,891.4c.39-3.55-2.17-6.75-5.72-7.14-3.55-.39-6.75,2.17-7.14,5.72-.39,3.55,2.17,6.75,5.72,7.14,3.55.39,6.75-2.17,7.14-5.72Z"/>
          <path class="cls-16" d="m1823.01,883.95c-.66-.07-1.31-.32-1.88-.75-1.67-1.27-1.99-3.65-.72-5.31,3.82-5.02,14.64-12.2,28.25-3.42,1.76,1.14,2.26,3.48,1.13,5.24-1.14,1.76-3.49,2.26-5.24,1.13-11.17-7.22-17.82,1.27-18.1,1.64-.84,1.1-2.16,1.61-3.44,1.47Z"/>
          <path class="cls-16" d="m1884.43,880.56c-.66-.07-1.31-.32-1.88-.75-1.66-1.27-1.99-3.65-.72-5.31,3.82-5.02,14.64-12.2,28.25-3.42,1.76,1.14,2.26,3.48,1.13,5.24-1.14,1.76-3.49,2.26-5.24,1.13-11.17-7.22-17.82,1.27-18.09,1.64-.84,1.1-2.16,1.61-3.44,1.47Z"/>
          <polygon class="cls-16" points="1775.52 854.27 1789.1 903.1 1801.95 901.97 1816.15 842.49 1775.52 854.27"/>
          <path class="cls-9" d="m1804.05,900.7c-.87-2.36-2.63-4.28-4.84-5.47-4.56-2.45-12.74-5.48-19.17-.34-9.43,7.55,5.16,31.94,23.28,22.62,0,0,5.35-4.29.73-16.81Z"/>
          <path class="cls-2" d="m1875.43,923.48c-6.51,2.34-11.64-1.6-11.7-1.65-.49-.38-.57-1.09-.19-1.58.38-.49,1.09-.57,1.58-.19.24.18,5.96,4.49,12.71-.41,1.1-.8,1.7-1.48,1.79-2.02.12-.77-.69-1.86-1.81-3.37-2.58-3.48-6.89-9.3-7.1-21.39,0-.62.49-1.14,1.11-1.15.62,0,1.14.49,1.15,1.11.2,11.38,4.09,16.62,6.66,20.09,1.39,1.88,2.49,3.36,2.23,5.05-.19,1.21-1.01,2.29-2.69,3.5-1.27.92-2.52,1.57-3.72,2Z"/>
          <path class="cls-11" d="m1848.18,932.34s25.88,6.12,43.36.22c0,0-6.36,19.72-21.78,19.65-15.42-.08-21.58-19.86-21.58-19.86Z"/>
          <path class="cls-3" d="m1912,840.06s9.16,8.07,6.96,50.28c0,0,8.54-46.38,3.91-52.1-4.63-5.72-10.87,1.82-10.87,1.82Z"/>
        </g>
        <path class="cls-16" d="m1772.57,838.55c1.09-10.22,5.75-19.71,10.97-28.56-4.86.61-10.28,1.03-14.18-1.95-3.89-2.97-3.79-10.65,1-11.64,2.79-.58,5.46,1.33,8.28,1.72,6.43.88,11.11-5.97,13.18-12.13,2.06-6.16,3.88-13.42,9.75-16.19,1.84-.87,3.94-1.18,5.96-.92,1.49,7.5.38,15.48-3.09,22.29,7.71-9.44,17.36-17.3,28.16-22.94,8.41-4.4,18.33-7.48,27.32-4.45,1.88,7.31-10.28,10.77-11.83,18.16,16.14-4.01,32.89-5.52,49.49-4.48,4.28.27,8.65.74,12.49,2.63,3.84,1.89,7.11,5.48,7.49,9.75.5,5.6-4.92,10.95-10.52,10.38,8.2,3.84,16.5,7.75,23.44,13.56s12.47,13.87,13.32,22.88c-6.05.06-12.1-1.48-17.38-4.42,3.64,3.4,6.76,8.53,4.88,13.15-1.39,3.41-5.21,5.33-8.88,5.55-3.68.22-7.28-.92-10.79-2.06-17.7-5.73-35.39-11.47-53.09-17.2,6.91,7.5,11.9,16.75,14.37,26.64-16.08-1.92-31.55-8.68-43.87-19.19-1.51,7.58-4.09,14.95-7.63,21.82-.56,1.08-1.19,2.2-2.26,2.78-3.58,1.94-6.46-3.38-9.68-5.89-3.94-3.07-9.74-1.74-14.12.65-7.57,4.12-12.81,10.13-18.59,1.17-3.89-6.02-4.93-14.12-4.18-21.11Z"/>
      </g>
      <path class="cls-13" d="m2238.59,1361.18s80.79,6.54,106.7,109.47c15.06,59.81,9.15,254.55,9.15,254.55l-104.75,16.43s9.4-217.64-71.73-284.7c0,0,16.43,44.2-43.02,295.71h-77.74l-25.91-257.6s-182.91,6.1-237.79-39.63c-54.87-45.73-60.38-100.46-60.38-100.46l258.53-39.29,246.93,45.53Z"/>
      <path class="cls-17" d="m1774.19,1011.33s5.08-39.12,13.21-37.09c8.13,2.03,80.28,15.15,87.39,13.67,7.11-1.48,0,33.07,0,33.07,0,0,81.22,7.39,101.54,41.94,20.32,34.55,67.59,165.76,84.87,176.93s51.38,42.28,51.38,42.28l-140.51,79.03-133.1-6.23s-96.28,57.7-171.47,12.77c-75.2-44.93-61.99-280.68,9.15-322.35,71.13-41.66,97.55-34.04,97.55-34.04Z"/>
      <path class="cls-3" d="m2010.76,1325.07c-.12,0-.23-.02-.35-.07-40.45-17.67-62.18-192.57-63.08-200.01-.06-.47.28-.91.75-.96.5-.07.91.28.96.75.22,1.81,22.5,181.36,62.05,198.63.44.19.64.7.45,1.14-.14.33-.46.52-.8.52Z"/>
      <path class="cls-3" d="m1838.96,1355.82c-.33,0-.65-.19-.79-.52-.19-.44,0-.95.45-1.14l29.42-12.85-4.12-51.32c-8.17-1.6-91.18-17.79-130.72-22.41-.43-.05-.76-.41-.76-.84-.06-3.94-1.46-96.7,4.65-110.44.19-.44.7-.63,1.14-.44.44.19.63.71.44,1.14-5.67,12.75-4.63,99.87-4.51,108.95,41.79,4.96,129.85,22.29,130.75,22.46.38.07.66.39.69.78l4.22,52.58c.03.37-.18.72-.52.87l-29.98,13.1c-.12.05-.23.07-.35.07Z"/>
      <path class="cls-3" d="m2177.96,1457.8c-.41,0-.77-.29-.85-.71-.04-.23-4.51-22.85-27-46.48-20.77-21.83-61.61-49.01-138.19-54.55-.48-.03-.84-.45-.8-.92.03-.48.48-.88.92-.8,77.21,5.58,118.43,33.08,139.41,55.17,22.79,24,27.32,47.04,27.36,47.27.09.47-.22.92-.69,1.01-.05,0-.11.01-.16.01Z"/>
      <g>
        <g>
          <path class="cls-6" d="m1892.33,1296.47s2.02.06,5.41.16c16.68.52,66.58,2.24,72.38,4.28,6.97,2.46-14,45.99-14,45.99,0,0-59.97,3.28-79.27-9.59-19.3-12.87,15.49-40.85,15.49-40.85Z"/>
          <path class="cls-6" d="m1948.19,1347.18s33.45,15.13,36.41,11.83c2.96-3.3-26.19-20.19-26.19-20.19l-10.22,8.36Z"/>
          <path class="cls-6" d="m1957.3,1336.45s49.53,20.37,53.27,13.53c3.75-6.84-51.06-24.53-51.06-24.53l-2.21,10.99Z"/>
          <path class="cls-6" d="m1963.89,1324.45s51.12,15.97,54.25,8.83c3.13-7.14-53.01-19.97-53.01-19.97l-1.24,11.14Z"/>
          <path class="cls-6" d="m1966.48,1311.57s47.75,15.59,50.73,8.43c2.98-7.16-49.49-19.58-49.49-19.58l-1.24,11.14Z"/>
        </g>
        <polygon class="cls-6" points="1903.74 1297.89 1866.06 1293.18 1869.53 1335.77 1888.91 1340.11 1903.74 1297.89"/>
      </g>
      <g>
        <polygon class="cls-16" points="2330.38 1166.1 2054.64 1165.72 1967.89 1367.34 2243.64 1367.72 2330.38 1166.1"/>
        <rect class="cls-16" x="1837.43" y="1355.08" width="184.61" height="12.2" transform="translate(1.92 -2.71) rotate(.08)"/>
        <path class="cls-11" d="m2164.29,1263.76c-.04-6.7,5.37-12.17,12.07-12.2,6.7-.04,12.17,5.37,12.2,12.07.04,6.7-5.37,12.17-12.07,12.2-6.7.04-12.17-5.37-12.21-12.07Z"/>
      </g>
    </g>
    <g>
      <path class="cls-9" d="m1324.7,1065.37s18.19,140.33,25.25,144.2c7.05,3.88,58.7-119.69,58.7-119.69l35.41,9.62s-36.19,189.83-101.31,185.62-71.43-155.89-71.43-155.89l53.39-63.87Z"/>
      <path class="cls-9" d="m1461.95,1710.25s-7.67,53.71,11.51,80.56c19.18,26.85,58.83,65.22,48.59,75.45s-124.04-47.32-121.49-60.1,20.46-65.22,16.62-95.91h44.76Z"/>
      <path class="cls-1" d="m1407.46,1780.18c-3.13,11.84-5.99,21.43-6.9,25.98-2.56,12.79,111.25,70.33,121.49,60.1,7.59-7.59-12.26-30.65-30.84-53.01-10.46,6.58-36.97,13.57-83.75-33.07Z"/>
      <path class="cls-9" d="m1349.61,1718.94s-7.67,53.71,11.51,80.56c19.18,26.85,58.83,65.22,48.59,75.45-10.23,10.23-124.04-47.31-121.49-60.1,2.56-12.79,20.46-65.22,16.62-95.91h44.76Z"/>
      <path class="cls-3" d="m1296.52,761.11c27.96,17.55,44.95,51.21,42.46,84.13-2.03,26.82-15.81,53.65-8.34,79.5,2.8,9.68,8.42,18.28,12.47,27.51,6.97,15.87,9.22,33.77,6.42,50.87-1.93,11.77-6.53,23.6-15.51,31.45-6.14,5.37-13.87,8.5-21.52,11.33-16.56,6.13-33.76,11.33-51.41,11.62-17.65.29-35.98-4.8-48.77-16.97-8.61-8.19-15.33-19.78-26.87-22.58-3.95-.96-8.08-.73-12.14-.5-15.74.89-31.72,1.83-46.61,7.02-15.87,5.53-30.17,15.77-46.76,18.43-23.72,3.8-49.13-10.65-57.98-32.99-8.85-22.34-.24-50.27,19.65-63.75,15.75-10.67,38.02-13.81,47.17-30.49,7.67-13.99,2.5-31.82,7.84-46.86,9.28-26.14,43.9-32.02,62.86-52.28,18.36-19.62,24.58-46.28,49.31-60.43,25.86-14.8,63.37-10.3,87.75,5Z"/>
      <path class="cls-16" d="m1080.03,1278.94s-26.92,130.82,15.95,149.25c42.87,18.43,187.04,50.87,195.66,77.26,8.62,26.38,0,241.59,0,241.59l68.59,2.03s21.44-243.05,19.44-266.63c-4.61-54.24-19.61-67.79-19.61-67.79,0,0,31.86,20.04,40.48,66.93,3.82,20.8,3.89,245.53,3.89,245.53l68.55,2.01s46.97-300.07-5.46-341.32c-52.43-41.25-196.08-101.03-196.08-101.03l-191.39-7.83Z"/>
      <path class="cls-11" d="m1241.12,971.2s54.99,12.79,79.29,44.76c24.3,31.97,39.64,101.03,39.64,101.03l-52.43,16.62s-2.56,38.36-26.85,48.59c0,0-15.35,60.1,0,111.25,0,0-129.16,38.36-208.44,0l-6.39-173.92-48.59-20.46s25.58-111.26,85.68-127.88c60.1-16.62,105.02-11.51,138.11,0Z"/>
      <path class="cls-9" d="m1028.94,1103.97l67.04,26.44s-15.08,71.92-8.91,99.49c8.02,35.86,96.54,110.22,114.96,119.25l-18.42,26.96s-139.93-52.31-156.55-136.07c-16.62-83.76,1.89-136.07,1.89-136.07Z"/>
      <path class="cls-8" d="m1307.62,1134.5h-.02c-.49-.01-.88-.42-.87-.91.42-18.26-15.67-42.08-15.83-42.32-.28-.41-.17-.96.23-1.23.41-.27.96-.17,1.23.23.68.99,16.57,24.54,16.14,43.36,0,.48-.41.87-.89.87Z"/>
      <path class="cls-8" d="m1177.36,1155.92c-13.66,0-30.35-4.55-48.07-19.71-.37-.32-.42-.88-.1-1.25.32-.37.88-.41,1.25-.1,43.07,36.84,79.72,9.62,80.09,9.34.39-.3.95-.22,1.25.17.3.39.22.95-.17,1.24-.23.17-13.87,10.31-34.25,10.31Z"/>
      <path class="cls-8" d="m1104.87,1134.5c-.1,0-.2-.02-.3-.05l-8.89-3.2c-.46-.17-.7-.67-.54-1.14.17-.46.68-.7,1.14-.54l8.01,2.88,19.61-63.69c.14-.47.63-.74,1.11-.59.47.15.73.64.59,1.11l-19.88,64.58c-.07.23-.23.42-.45.53-.12.06-.26.09-.4.09Z"/>
      <path class="cls-2" d="m1306.21,875.29s7.47-6.93,10.97-2.52c8.94,11.23-5.73,19.71-13.67,20.38l2.69-17.85Z"/>
      <path class="cls-9" d="m1261.11,758.33c-34.25-5.97-68.11,15.03-78.06,48.34-3.27,10.95-3.7,22-1.77,32.42,3.6,25.68,6.7,46.41,12.91,62.47,6.29,16.27,6.63,34.24.16,50.45l-2.59,6.48c-2.45,6.14-.25,13.17,5.25,16.84,17,11.34,30.22,11.7,38.27,10.04,5.15-1.06,9.21-5.02,10.45-10.13l7.84-32.38h0c43.56,5.2,56.85-74.3,62.44-97.4h-.07c.24-.86.48-1.72.7-2.59,9.36-38.65-15.72-77.59-55.54-84.52Z"/>
      <path class="cls-3" d="m1239.71,825.63c-10.27,6.39-19.7,14.02-29.11,21.62-9.95,8.05-20.32,16.64-24.99,28.55-8.91-10.94-12.9-25.01-15.79-38.82-1.34-6.4-2.5-12.95-1.87-19.46.88-9.22,5.26-17.7,9.55-25.91,5.54-10.6,11.43-21.61,21.22-28.47,6.48-4.55,14.24-6.93,22-8.48,18.12-3.61,37.35-2.92,54.53,3.86,17.18,6.79,32.12,20,39.22,37.06,9.15,21.97,4.71,46.94.13,70.29,0-10.15-4.4-19.72-8.7-28.92-2.8-5.98-5.68-12.08-10.29-16.81-7.86-8.06-10.76-7.42-24.34-22.37-7.69,13.21-18.71,19.85-31.55,27.84Z"/>
      <path class="cls-9" d="m1197.24,862.91c-.56-2.44-2.05-4.56-4.09-6.01-4.19-3-11.89-7.03-18.89-2.76-10.27,6.26,1.05,32.2,20.12,25.29,0,0,5.83-3.56,2.85-16.51Z"/>
      <path class="cls-16" d="m1294.92,873.23c1.09-3.15-.57-6.6-3.73-7.69s-6.59.57-7.69,3.73c-1.09,3.15.57,6.59,3.73,7.69,3.15,1.09,6.59-.57,7.69-3.73Z"/>
      <path class="cls-16" d="m1237.98,866.02c1.09-3.15-.57-6.6-3.73-7.69-3.15-1.09-6.59.57-7.69,3.73-1.09,3.15.57,6.59,3.73,7.69,3.15,1.09,6.59-.57,7.69-3.73Z"/>
      <path class="cls-19" d="m1271.83,912.58s-4.36-4.63-7.54-4.35c-3.19.28-5.54,3.64-5.54,3.64,0,0-1.13-3.99-4.82-4.73-3.68-.74-14.56.19-14.56.19,0,0,6.67,17.49,18.21,16.77,11.54-.71,13.99-11.01,13.99-11.01l.26-.5Z"/>
      <path class="cls-16" d="m1260.29,917.1c-13.16.35-23.74-11.26-23.88-11.41-.31-.35-.28-.89.07-1.2.35-.31.89-.28,1.2.07.69.78,17.21,18.85,34.27,6.76.38-.27.92-.18,1.19.2.27.38.18.91-.2,1.19-4.31,3.05-8.6,4.29-12.65,4.4Z"/>
      <path class="cls-3" d="m1220.7,852.93c-.69-.21-1.29-.71-1.59-1.42-.55-1.28.05-2.75,1.32-3.3.38-.16,9.54-3.93,20.15-.23,1.31.45,2.01,1.89,1.55,3.2-.45,1.31-2,1.99-3.19,1.55-8.85-3.07-16.46.07-16.54.11-.56.24-1.16.26-1.71.1Z"/>
      <path class="cls-3" d="m1282.92,857.24c-.64-.33-1.14-.93-1.31-1.68-.31-1.35.54-2.7,1.89-3.01.4-.09,10-2.2,19.87,3.38,1.21.68,1.63,2.22.95,3.42-.68,1.21-2.26,1.62-3.42.95-8.17-4.62-16.2-2.88-16.28-2.86-.6.13-1.19.05-1.7-.21Z"/>
      <path class="cls-2" d="m1261.71,893.54c-1.67.21-3.67.06-6.05-.64-.47-.14-.74-.63-.6-1.1.14-.47.64-.74,1.1-.6,8.24,2.43,10.98-2.64,11.56-3.99-4.68-10.12-1.17-21.55-1.02-22.04.15-.47.65-.73,1.11-.58.47.15.73.65.58,1.11-.04.11-3.53,11.52,1.09,21.08.1.2.12.44.05.65-.02.07-1.79,5.36-7.82,6.1Z"/>
      <path class="cls-9" d="m1183.6,1376.1s5.68,6.34,14.39,9.15c8.7,2.81,35.4,7.6,39.45,9.37,4.04,1.77,22.75,15.62,27.06,15.77,4.31.15-15.74-20.98-15.74-20.98,0,0,19.64,15.62,23.44,12.96,3.8-2.66-15.81-21.24-15.81-21.24,0,0,20.7,13.11,23.29,9.7,2.59-3.41-17.35-16.31-17.35-16.31,0,0,19.84,8.75,21.83,6,1.99-2.75-24.83-22.07-37.68-24.78-12.85-2.71-53.56-7.75-53.56-7.75l-9.31,28.11Z"/>
      <path class="cls-1" d="m1295.12,1788.86c-3.13,11.84-5.99,21.43-6.9,25.98-2.56,12.79,111.25,70.33,121.49,60.1,7.59-7.59-12.26-30.65-30.84-53.01-10.46,6.58-36.97,13.57-83.75-33.07Z"/>
      <g>
        <path class="cls-9" d="m1401.38,1088.48s10.13-23.21,23.27-32.22c13.14-9.01,23.27-5.44,23.27-5.44l14.25-8.88s8.27,45.17-26.02,65.5c-2.86,1.7-34.77-18.96-34.77-18.96Z"/>
        <path class="cls-16" d="m1421.45,992l49.91,14.43c.56.16.88.74.72,1.3l-29.27,101.18c-.16.56-.74.88-1.3.72l-49.91-14.43c-.56-.16-.88-.74-.72-1.3l29.27-101.18c.16-.56.74-.88,1.3-.72Z"/>
        <path class="cls-9" d="m1468.2,1053.82c1.53,0,3.06-.56,4.27-1.68,2.53-2.36,2.66-6.32.31-8.84l-10.51-11.26c-2.36-2.52-6.32-2.66-8.84-.3-2.52,2.36-2.66,6.32-.31,8.84l10.51,11.26c1.23,1.32,2.9,1.99,4.58,1.99Z"/>
        <path class="cls-9" d="m1464.21,1064.2c1.53,0,3.06-.56,4.27-1.68,2.53-2.36,2.66-6.32.31-8.84l-10.51-11.26c-2.36-2.52-6.32-2.66-8.84-.3-2.53,2.36-2.66,6.32-.31,8.84l10.51,11.26c1.23,1.32,2.9,1.99,4.58,1.99Z"/>
        <path class="cls-9" d="m1460,1073.78c1.53,0,3.06-.56,4.27-1.68,2.53-2.36,2.66-6.32.31-8.84l-10.51-11.26c-2.36-2.52-6.32-2.66-8.84-.3-2.53,2.36-2.66,6.32-.31,8.84l10.51,11.26c1.23,1.32,2.9,1.99,4.58,1.99Z"/>
        <path class="cls-9" d="m1453.38,1080.05c.95,0,1.91-.32,2.69-.99,1.76-1.49,1.98-4.12.49-5.88l-9.58-11.33c-1.49-1.76-4.12-1.98-5.88-.49-1.76,1.49-1.98,4.12-.49,5.88l9.58,11.33c.83.98,2,1.48,3.19,1.48Z"/>
      </g>
    </g>
    <g>
      <path class="cls-9" d="m1830.92,1551.53s-1.23-20.38,4.9-31.66c6.13-11.28,14.71-12.44,14.71-12.44l1.89-7.36s27.58,25.16,10.41,52.33c-1.43,2.27-31.92-.87-31.92-.87Z"/>
      <path class="cls-9" d="m1906.21,1785.45s-.68,47.02-.31,47.69c.37.67-3.43,6.56-3.43,6.56l-14.83,2.66-13.54-6.22s1.19-43.71-.22-50.61c-1.42-6.89,32.33-.08,32.33-.08Z"/>
      <path class="cls-3" d="m1874.1,1836.13s17.09,5.98,31.71-3.92c0,0,56.92,21.34,55.19,37.56,0,0,2.42,4.83-22.24,3.79-24.66-1.05-62.99-2.14-64.02-2.71-1.03-.57-5.86,2.04-.63-34.72Z"/>
      <path class="cls-9" d="m1974.93,1785.45s-.68,47.02-.31,47.69c.37.67-3.43,6.56-3.43,6.56l-14.83,2.66-13.54-6.22s1.19-43.71-.22-50.61c-1.42-6.89,32.33-.08,32.33-.08Z"/>
      <path class="cls-3" d="m1942.82,1836.13s17.09,5.98,31.71-3.92c0,0,56.92,21.34,55.18,37.56,0,0,2.42,4.83-22.24,3.79-24.66-1.05-62.99-2.14-64.02-2.71-1.03-.57-5.86,2.04-.63-34.72Z"/>
      <path class="cls-13" d="m1610.92,1483.32s-65.86,24.92-83.05,58.42c-17.18,33.5-21.48,112.25-21.48,112.25h52.26s29.35,118.84,78.03,156.07l144.61-128.86,6.56-110.25s-35.2-82.19-65.26-87.63c-30.07-5.44-111.68,0-111.68,0Z"/>
      <path class="cls-16" d="m1708.45,1810.06s-17.93,38.86,36.69,44.23c74.35,7.31,145.15-137.3,145.15-137.3,0,0,24.22,87.91,52.86,103.38h31.78s28.47-33.22,11.29-103.38c-17.18-70.16-47.25-164.66-100.23-160.36-52.98,4.3-127.48,208.82-127.48,208.82l-50.07,44.61Z"/>
      <path class="cls-16" d="m1849.86,1467.08l-166.66,14.31c-.38.03-.67.37-.63.75l10.09,117.49c.03.38.37.67.75.63l166.66-14.31c.38-.03.67-.37.63-.75l-10.09-117.49c-.03-.38-.37-.67-.75-.63Z"/>
      <path class="cls-3" d="m1636.7,1810.06s47.25,52.98,101.66,45.82c54.41-7.16,80.18-138.89,80.18-138.89,0,0,26.65,87.91,55.29,103.38h32.38s25.45-33.22,8.26-103.38c-17.18-70.16-47.25-164.66-100.23-160.36-52.98,4.3-127.48,208.82-127.48,208.82l-50.07,44.61Z"/>
      <path class="cls-9" d="m1516.9,1654s9.54,84.48,75.51,79.32c47.67-3.73,113.23-123.7,113.23-123.7l-23.69-23.13-77,82.77c-6.54,7.03-18.25,4.3-21-4.9l-3.09-10.35h-63.95Z"/>
      <path class="cls-2" d="m1702.1,1377.02s5.97-8.02,10.14-4.4c10.63,9.24-1.08,19.74-8.61,21.8l-1.52-17.4Z"/>
      <path class="cls-9" d="m1706.24,1346.47h-.07c.08-.86.16-1.73.21-2.62,2.09-38.26-27.89-70.85-66.52-71.64-35.62-.72-66.12,26.84-69.03,62.34-.86,10.52.73,20.63,4.25,29.83,12.33,36.9,19.67,62.29,37.78,74.91,3.29,2.29,5.05,6.2,4.83,10.2l-.95,17.14c-.41,7.46-4.39,14.26-10.69,18.28h0c36.51,16.44,53.2,2.93,53.2,2.93h0c-5.42-5.04-8.32-12.23-7.92-19.62l.51-9.34c.32-5.82,4.84-10.54,10.64-11.1h.11c65.04-6.4,42.37-78.03,43.64-101.31Z"/>
      <path class="cls-1" d="m1636.42,1380.22c.19-3.41-2.43-6.33-5.84-6.52-3.41-.19-6.33,2.43-6.52,5.84-.19,3.41,2.43,6.33,5.84,6.52,3.41.19,6.33-2.43,6.52-5.84Z"/>
      <path class="cls-1" d="m1695.74,1373.47c.19-3.41-2.43-6.33-5.84-6.52-3.41-.19-6.33,2.43-6.52,5.84-.19,3.41,2.43,6.33,5.84,6.52,3.41.19,6.33-2.43,6.52-5.84Z"/>
      <path class="cls-1" d="m1592.68,1388.31s23.21-42.89,22.37-66.45l-42.71-6.1s-12.53,35.56,9.05,67.53l11.3,5.01Z"/>
      <path class="cls-2" d="m1663.36,1403.62c-2.23-.12-3.88-.97-3.98-1.03-.67-.35-.93-1.18-.58-1.85.35-.67,1.18-.93,1.84-.58h0s2.69,1.35,5.31.37c1.84-.69,3.3-2.36,4.35-4.98.22-.56.26-.65-1.48-1.84-3.04-2.09-8.7-5.99-9.75-20.4-.06-.75.51-1.41,1.27-1.47.78-.06,1.41.51,1.47,1.27.96,13.1,5.73,16.38,8.58,18.35,1.66,1.14,3.54,2.43,2.46,5.11-1.35,3.38-3.36,5.58-5.96,6.54-1.23.46-2.45.57-3.52.51Z"/>
      <path class="cls-1" d="m1675.06,1356.74c-.74-.04-1.43-.48-1.76-1.19-.47-1.03-.03-2.24,1-2.72.37-.17,9.3-4.21,20.64-.34,1.07.37,1.65,1.53,1.28,2.61-.37,1.07-1.53,1.65-2.61,1.28-9.71-3.32-17.51.14-17.59.18-.31.14-.64.2-.96.18Z"/>
      <path class="cls-1" d="m1616.1,1368.29c-.58-.03-1.13-.3-1.51-.79-.69-.9-.53-2.19.37-2.88,9.48-7.32,19.23-6.38,19.64-6.34,1.13.12,1.95,1.13,1.83,2.26-.12,1.12-1.17,1.94-2.25,1.83-.14,0-8.6-.75-16.7,5.5-.41.31-.89.45-1.37.42Z"/>
      <path class="cls-1" d="m1659.28,1421.56c-5.15-.28-11.13-1.55-18.04-4.31-.7-.28-1.04-1.08-.76-1.78.28-.7,1.08-1.04,1.78-.76,30.5,12.18,41.19-5.66,41.63-6.42.38-.65,1.22-.88,1.87-.51.66.37.88,1.21.51,1.86-.09.17-7.66,12.99-26.99,11.92Z"/>
      <path class="cls-9" d="m1594.73,1384.53c-.98-2.25-2.8-4.03-5.02-5.07-4.58-2.15-12.73-4.66-18.72.71-8.79,7.88,6.77,30.88,23.94,20.81,0,0,4.99-4.47-.2-16.45Z"/>
      <path class="cls-1" d="m1569.14,1307.4c-4.1-6.34-5.93-14.12-5.11-21.63,3.75-1.34,8.03.93,10.27,4.23,2.24,3.3,2.92,7.38,3.54,11.32.59-9.96,9.43-16.56,17.1-21.51,9.32-6.02,19.33-11.86,30.49-13.44,15.39-2.17,31.32.97,46.64,2.59,11.48.63,23.03,2.73,34.4,3.54,2.22.27,4.43.54,6.64.81,3.29.46,9.91-.73,9.58,4.29-.36,5.49-4.02,10.32-8.54,13.46-4.35,3.01-9.42,4.69-14.41,6.28,2.84-.2,5.64.35,8.39,1.2,3.48,1.07,6.93,2.39,10.27,3.82,1.84.79,3.66,1.99,4.42,3.85.41,1,.49,2.12.36,3.19-1.15,9.86-12.97,16.19-21.34,18.68-27.07,8.08-55.99-.33-84.23-.82-12.66-.22-27.81,2.82-39.99-1.37-4.1-1.41-13.78-8.3-16.94-13.92-1.02-1.83.35-4.1,2.45-4.09,2,.01,3.99-.08,5.98-.47Z"/>
      <path class="cls-1" d="m1697.77,1329.17s6.48,11.63,8.74,26.05c0,0,3.97-23.96-.41-31.82-4.38-7.86-8.33,5.77-8.33,5.77Z"/>
      <path class="cls-9" d="m1863.05,1508.14c1.1-.56,1.99-1.52,2.45-2.77.95-2.62-.41-5.51-3.02-6.46l-11.67-4.23c-2.62-.95-5.51.41-6.46,3.02-.95,2.62.4,5.51,3.02,6.46l11.67,4.23c1.37.5,2.81.36,4.01-.25Z"/>
      <path class="cls-9" d="m1864,1517.06c1.1-.56,1.99-1.52,2.45-2.77.95-2.62-.4-5.51-3.02-6.46l-11.67-4.23c-2.62-.95-5.51.41-6.46,3.02-.95,2.62.4,5.51,3.02,6.46l11.67,4.23c1.37.5,2.81.36,4.01-.25Z"/>
      <path class="cls-9" d="m1864.48,1525.47c1.1-.56,1.99-1.52,2.45-2.77.95-2.62-.4-5.51-3.02-6.46l-11.67-4.23c-2.62-.95-5.51.41-6.46,3.02-.95,2.62.4,5.51,3.02,6.46l11.67,4.23c1.37.5,2.81.36,4.01-.25Z"/>
      <path class="cls-9" d="m1862.03,1532.4c.68-.35,1.25-.93,1.57-1.7.72-1.71-.09-3.68-1.8-4.4l-11.03-4.62c-1.71-.72-3.68.08-4.4,1.8-.72,1.71.09,3.68,1.8,4.4l11.03,4.62c.95.4,1.98.33,2.83-.11Z"/>
      <path class="cls-9" d="m1680.57,1596.98s2.8-24.17,5.75-32.67c2.95-8.51-.51-18.94,4.71-18.99,5.22-.05,6.48,17.23,6.48,17.23,0,0,13.22-12.68,16.7-17.19,3.47-4.51,11.73-11.01,15.23-8.72,3.5,2.28-14.69,22.8-14.69,22.8,0,0,17.01-15.77,20.69-14.35,3.68,1.42-15.02,24.66-15.02,24.66,0,0,17.33-17.71,19.9-17.91,2.57-.2,2.93,3.08-1.68,10.84-4.61,7.76-11.32,14.49-11.32,14.49,0,0,13.11-11.53,15.16-12.37,2.06-.84,5.5-.49-2.55,10.29-8.05,10.77-25.49,35.95-48.41,41.55l-10.94-19.65Z"/>
    </g>
    <g>
      <rect class="cls-13" x="537.02" y="508" width="13.85" height="1104.91"/>
      <rect class="cls-7" x="309.66" y="420.14" width="468.56" height="159.24"/>
      <path class="cls-13" d="m602.52,587.93c0-3.71-3.01-6.72-6.71-6.72s-6.72,3.01-6.72,6.72,3.01,6.72,6.72,6.72,6.71-3.01,6.71-6.72Z"/>
      <path class="cls-13" d="m602.52,602.7c0-3.71-3.01-6.72-6.71-6.72s-6.72,3.01-6.72,6.72,3.01,6.72,6.72,6.72,6.71-3.01,6.71-6.72Z"/>
      <path class="cls-13" d="m602.52,617.47c0-3.71-3.01-6.72-6.71-6.72s-6.72,3.01-6.72,6.72,3.01,6.72,6.72,6.72,6.71-3.01,6.71-6.72Z"/>
      <path class="cls-13" d="m602.52,632.25c0-3.71-3.01-6.72-6.71-6.72s-6.72,3.01-6.72,6.72,3.01,6.72,6.72,6.72,6.71-3.01,6.71-6.72Z"/>
      <path class="cls-13" d="m602.52,647.02c0-3.71-3.01-6.72-6.71-6.72s-6.72,3.01-6.72,6.72,3.01,6.72,6.72,6.72,6.71-3.01,6.71-6.72Z"/>
      <path class="cls-13" d="m602.52,661.8c0-3.71-3.01-6.72-6.71-6.72s-6.72,3.01-6.72,6.72,3.01,6.72,6.72,6.72,6.71-3.01,6.71-6.72Z"/>
      <path class="cls-13" d="m602.52,676.57c0-3.71-3.01-6.72-6.71-6.72s-6.72,3.01-6.72,6.72,3.01,6.72,6.72,6.72,6.71-3.01,6.71-6.72Z"/>
      <path class="cls-13" d="m602.52,691.35c0-3.71-3.01-6.72-6.71-6.72s-6.72,3.01-6.72,6.72,3.01,6.72,6.72,6.72,6.71-3.01,6.71-6.72Z"/>
    </g>
    <g>
      <circle class="cls-13" cx="1058.57" cy="473.78" r="126.02" transform="translate(-24.97 887.29) rotate(-45)"/>
      <circle class="cls-11" cx="1056.13" cy="472.86" r="100.25" transform="translate(-25.03 885.29) rotate(-45)"/>
      <path class="cls-20" d="m1067.23,471.86c0-6.2-5.03-11.22-11.22-11.22s-11.22,5.02-11.22,11.22,5.02,11.22,11.22,11.22,11.22-5.02,11.22-11.22Z"/>
      <g>
        <path class="cls-20" d="m1056.01,474.09h-2.24c-1.23,0-2.23-1-2.23-2.23s1-2.23,2.23-2.23h.02l.1-69.17-2.78,4.03c-.7,1.01-2.09,1.26-3.1.57-1.01-.7-1.27-2.09-.57-3.1l6.86-9.94c.55-.81,1.56-1.16,2.5-.86.93.29,1.56,1.15,1.56,2.13l-.12,78.56c0,1.23-1,2.22-2.23,2.22Z"/>
        <path class="cls-20" d="m1063.7,404.82c-.64,0-1.29-.28-1.73-.82l-7.57-9.3c-.78-.95-.64-2.36.32-3.13.95-.77,2.35-.64,3.13.32l7.57,9.3c.78.95.64,2.36-.32,3.13-.41.34-.91.5-1.4.5Z"/>
      </g>
      <g>
        <path class="cls-20" d="m1015.65,481.3c-.58,0-1.17-.23-1.6-.68l-6.62-6.85c-.62-.64-.8-1.6-.45-2.42.35-.82,1.16-1.35,2.05-1.35h0l52.27.12c1.23,0,2.22,1,2.22,2.23v2.25c0,1.23-1,2.23-2.23,2.23s-2.23-1-2.23-2.23v-.02l-44.78-.1,2.96,3.07c.86.89.83,2.29-.05,3.15-.44.42-.99.62-1.55.62Z"/>
        <path class="cls-20" d="m1009.03,474.45c-.5,0-1-.17-1.41-.5-.95-.78-1.09-2.18-.32-3.13l6.19-7.58c.79-.96,2.19-1.09,3.14-.32.95.78,1.09,2.18.32,3.13l-6.19,7.58c-.44.54-1.08.82-1.73.82Z"/>
      </g>
    </g>
    <g>
      <rect class="cls-13" x="428.85" y="1375.1" width="382.44" height="436.59"/>
      <rect class="cls-7" x="385.6" y="1342.87" width="464.38" height="46.73"/>
      <rect class="cls-7" x="452.76" y="1429.44" width="326.66" height="145.69"/>
      <rect class="cls-7" x="452.76" y="1600.89" width="326.66" height="145.69"/>
      <rect class="cls-13" x="579.1" y="1443.1" width="71.71" height="14.8"/>
      <rect class="cls-13" x="579.1" y="1614.96" width="71.71" height="14.8"/>
      <g>
        <path class="cls-17" d="m572.67,1241.61h-194.47v5.6h99.77c10.05,0,18.2,8.15,18.2,18.2h0c0,10.05-8.15,18.2-18.2,18.2h-99.77v5.25h194.47c13.05,0,23.63-10.58,23.63-23.63h0c0-13.05-10.58-23.63-23.63-23.63Z"/>
        <path class="cls-5" d="m505.05,1265.24h0c0-13.05-10.58-23.63-23.63-23.63h-103.21v5.6h99.77c10.05,0,18.2,8.15,18.2,18.2h0c0,10.05-8.15,18.2-18.2,18.2h-99.77v5.25h103.21c13.05,0,23.63-10.58,23.63-23.63Z"/>
        <path class="cls-11" d="m477.97,1247.23h-99.77v.12c9.06,1.04,16.1,8.74,16.1,18.08h0c0,9.34-7.04,17.04-16.1,18.08v.12h99.77c10.05,0,18.2-8.15,18.2-18.2h0c0-10.05-8.15-18.21-18.2-18.21Z"/>
        <path class="cls-18" d="m496.18,1265.24c0-10.05-8.15-18.2-18.2-18.2h-99.77v.12c4.69.54,8.83,2.86,11.74,6.26,19.96-1.58,79.47-3.42,85.74,30.02h2.29c10.05,0,18.2-8.15,18.2-18.2Z"/>
      </g>
      <g>
        <path class="cls-20" d="m409.71,1288.87h203.78v6.43h-104.55c-10.53,0-19.07,9.36-19.07,20.9h0c0,11.54,8.54,20.9,19.07,20.9h104.55v6.03h-203.78c-13.67,0-24.76-12.14-24.76-27.12h0c0-14.98,11.09-27.12,24.76-27.12Z"/>
        <path class="cls-12" d="m480.57,1315.99h0c0-14.98,11.09-27.12,24.76-27.12h108.16v6.43h-104.55c-10.53,0-19.07,9.36-19.07,20.9h0c0,11.54,8.54,20.9,19.07,20.9h104.55v6.03h-108.16c-13.68,0-24.76-12.14-24.76-27.12Z"/>
        <path class="cls-11" d="m508.94,1295.32h104.55v.14c-9.5,1.2-16.87,10.03-16.87,20.75h0c0,10.72,7.38,19.56,16.87,20.75v.14h-104.55c-10.53,0-19.07-9.36-19.07-20.9h0c0-11.54,8.54-20.9,19.07-20.9Z"/>
        <path class="cls-18" d="m489.86,1315.99c0-11.54,8.54-20.9,19.07-20.9h104.55v.14c-4.91.62-9.25,3.28-12.3,7.19-20.91-1.81-83.28-3.93-89.85,34.46h-2.4c-10.53,0-19.07-9.36-19.07-20.9Z"/>
      </g>
    </g>
    <g>
      <path class="cls-11" d="m317.5,1048.83c2.17,3.51,5.33,6.27,8.45,8.97,6.73,5.84,13.45,11.67,20.18,17.51,7.84,6.8,16.18,14.48,17.75,24.74,1.13,7.4-1.47,15.33,1.33,22.27,2.97,7.37,11.21,11.27,19.08,12.4,7.87,1.13,15.92.2,23.78,1.34,9.36,1.36,16.58,5.95,19.79,14.92,1.48,4.14,1.18,8.55,6.93,8.34,4.39-.16,8.25-5.11,9.27-8.97,1.53-5.86-.62-12.11-3.89-17.21-3.26-5.1-7.6-9.42-11.11-14.36-5.97-8.38-9.45-18.5-9.91-28.77-.58-12.96,3.25-27.18-3.7-38.13-4.11-6.47-11.2-10.31-17.96-13.92-13.02-6.96-27.28-15.86-30.13-30.34-1.18-6.01-.35-12.82-4.1-17.66-2.98-3.84-8.1-5.32-12.94-5.8-4.4-.44-9.62.15-11.92,3.93-2.09,3.44-.76,7.85-1.11,11.86-.95,10.8-13.29,16.38-19.2,25.47-4.49,6.91-4.92,16.41-.58,23.42Zm17.91-15.67c2.41-4.04,7.65-6.15,12.19-4.91,1.55.42,3.02,1.21,4.15,2.35,1.71,1.72,2.56,4.1,3.79,6.2,1.8,3.06,4.5,5.58,7.68,7.15,4.3,2.13,9.24,2.49,14.04,2.78,7.71.47,22.57,2.38,22.29,13.3-.16,6.32-6.66,7.93-11.95,8.18-8.18.39-14.46-3.2-21.73-6.16-9.35-3.81-20.66-4.54-27.81-12.49-3.97-4.41-5.69-11.31-2.65-16.41Z"/>
      <rect class="cls-15" x="393.97" y="1151.49" width="74.61" height="90.12" transform="translate(862.55 2393.1) rotate(180)"/>
      <path class="cls-15" d="m370.66,1219.78h28.91c2.86,0,5.18-2.32,5.18-5.18s-2.32-5.18-5.18-5.18h-23.73v-34.09h20.93c2.86,0,5.18-2.32,5.18-5.18s-2.32-5.18-5.18-5.18h-26.11c-2.86,0-5.18,2.32-5.18,5.18v44.45c0,2.86,2.32,5.18,5.18,5.18Z"/>
    </g>
    <g>
      <path class="cls-11" d="m2305.17,676.75h-281.76c-13.85,0-25.08,11.23-25.08,25.08v124.58c0,13.85,11.23,25.08,25.08,25.08h27.57v48.35l29.8-48.35h224.38c13.85,0,25.08-11.23,25.08-25.08v-124.58c0-13.85-11.23-25.08-25.08-25.08Z"/>
      <path class="cls-7" d="m2081.45,746.12c0-15.88-12.87-28.75-28.75-28.75s-28.75,12.87-28.75,28.75,12.87,28.75,28.75,28.75,28.75-12.87,28.75-28.75Z"/>
      <rect class="cls-7" x="2111.98" y="717.38" width="89.61" height="7.53" rx=".32" ry=".32"/>
      <rect class="cls-7" x="2111.98" y="744.07" width="193.22" height="7.53" rx=".32" ry=".32"/>
      <rect class="cls-7" x="2111.98" y="764.16" width="148.82" height="7.53" rx=".32" ry=".32"/>
      <path class="cls-7" d="m2087.65,820.66c0-4.99-4.05-9.04-9.04-9.04s-9.04,4.05-9.04,9.04,4.05,9.04,9.04,9.04,9.04-4.05,9.04-9.04Z"/>
      <circle class="cls-7" cx="2134.71" cy="820.66" r="9.04"/>
      <path class="cls-7" d="m2186.39,829.7c4.99,0,9.04-4.05,9.04-9.04s-4.05-9.04-9.04-9.04-9.04,4.05-9.04,9.04,4.05,9.04,9.04,9.04Z"/>
    </g>
    <g>
      <path class="cls-11" d="m1661.08,632.52h-281.76c-13.85,0-25.08,11.23-25.08,25.08v124.58c0,13.85,11.23,25.08,25.08,25.08h27.57v48.35l29.8-48.35h224.38c13.85,0,25.08-11.23,25.08-25.08v-124.58c0-13.85-11.23-25.08-25.08-25.08Z"/>
      <path class="cls-7" d="m1437.36,701.9c0-15.88-12.87-28.75-28.75-28.75s-28.75,12.87-28.75,28.75,12.87,28.75,28.75,28.75,28.75-12.87,28.75-28.75Z"/>
      <path class="cls-7" d="m1468.2,673.15h88.98c.17,0,.31.14.31.31v6.9c0,.17-.14.31-.31.31h-88.98c-.17,0-.32-.14-.32-.32v-6.9c0-.17.14-.32.32-.32Z"/>
      <path class="cls-7" d="m1468.2,699.85h192.59c.17,0,.31.14.31.31v6.9c0,.17-.14.32-.32.32h-192.59c-.17,0-.32-.14-.32-.32v-6.9c0-.17.14-.31.31-.31Z"/>
      <path class="cls-7" d="m1468.2,719.94h148.19c.17,0,.31.14.31.31v6.9c0,.17-.14.32-.32.32h-148.18c-.17,0-.32-.14-.32-.32v-6.9c0-.17.14-.32.32-.32Z"/>
      <path class="cls-7" d="m1443.56,776.44c0-4.99-4.05-9.04-9.04-9.04s-9.04,4.05-9.04,9.04,4.05,9.04,9.04,9.04,9.04-4.05,9.04-9.04Z"/>
      <circle class="cls-7" cx="1490.62" cy="776.44" r="9.04" transform="translate(-19.9 39.45) rotate(-1.51)"/>
      <path class="cls-7" d="m1542.3,785.48c4.99,0,9.04-4.05,9.04-9.04s-4.05-9.04-9.04-9.04-9.04,4.05-9.04,9.04,4.05,9.04,9.04,9.04Z"/>
    </g>
    <g>
      <path class="cls-15" d="m1008.14,712.86h-54.9c-11.42,0-20.68,9.26-20.68,20.68v54.9c0,11.42,9.26,20.69,20.68,20.69h13.9c2.74,0,5.15,1.81,5.91,4.44l7.64,26.45,8.34-26.58c.8-2.56,3.18-4.31,5.87-4.31h13.25c11.42,0,20.68-9.26,20.68-20.68v-54.9c0-11.42-9.26-20.68-20.68-20.68Z"/>
      <path class="cls-11" d="m1009.36,745.89c-12.63-16.31-29.3,3.68-29.3,3.68,0,0-16.67-20-29.3-3.68-12.63,16.31,29.3,47.72,29.3,47.72,0,0,41.93-31.4,29.3-47.72Z"/>
    </g>
    <g>
      <path class="cls-15" d="m2011.48,481.25h-54.9c-11.42,0-20.68,9.26-20.68,20.68v54.9c0,11.42,9.26,20.68,20.68,20.68h13.9c2.74,0,5.15,1.81,5.91,4.45l7.64,26.45,8.34-26.58c.8-2.56,3.18-4.31,5.87-4.31h13.25c11.42,0,20.68-9.26,20.68-20.68v-54.9c0-11.42-9.26-20.68-20.68-20.68Z"/>
      <path class="cls-11" d="m2012.7,514.28c-12.63-16.31-29.3,3.68-29.3,3.68,0,0-16.67-20-29.3-3.68-12.63,16.31,29.3,47.72,29.3,47.72,0,0,41.93-31.4,29.3-47.72Z"/>
    </g>
    <g>
      <path class="cls-3" d="m1563.58,1123.8h-54.9c-11.42,0-20.68,9.26-20.68,20.68v54.9c0,11.42,9.26,20.68,20.68,20.68h13.9c2.74,0,5.15,1.81,5.91,4.45l7.64,26.45,8.34-26.58c.8-2.56,3.18-4.31,5.87-4.31h13.25c11.42,0,20.68-9.26,20.68-20.68v-54.9c0-11.42-9.26-20.68-20.68-20.68Z"/>
      <path class="cls-11" d="m1566.2,1154.75c0-8.24-6.68-14.93-14.93-14.93s-14.92,6.68-14.92,14.93,6.68,14.93,14.92,14.93,14.93-6.68,14.93-14.93Z"/>
      <path class="cls-11" d="m1529.95,1193.02h42.65s-1.07-17.73-21.32-17.73-21.32,17.73-21.32,17.73Z"/>
      <path class="cls-11" d="m1513.99,1156.53v9.76h9.38v2.49h-9.38v9.84h-2.66v-9.84h-9.39v-2.49h9.39v-9.76h2.66Z"/>
    </g>
    <g>
      <path class="cls-3" d="m2306.29,932.34h-54.9c-11.42,0-20.68,9.26-20.68,20.68v54.9c0,11.42,9.26,20.68,20.68,20.68h13.9c2.74,0,5.15,1.81,5.91,4.45l7.64,26.45,8.34-26.58c.8-2.57,3.18-4.31,5.87-4.31h13.25c11.42,0,20.68-9.26,20.68-20.68v-54.9c0-11.42-9.26-20.68-20.68-20.68Z"/>
      <path class="cls-11" d="m2308.9,963.29c0-8.24-6.68-14.93-14.93-14.93s-14.93,6.68-14.93,14.93,6.68,14.93,14.93,14.93,14.93-6.68,14.93-14.93Z"/>
      <path class="cls-11" d="m2272.65,1001.57h42.64s-1.07-17.73-21.32-17.73-21.32,17.73-21.32,17.73Z"/>
      <path class="cls-11" d="m2256.69,965.08v9.76h9.38v2.49h-9.38v9.84h-2.66v-9.84h-9.39v-2.49h9.39v-9.76h2.66Z"/>
    </g>
    <g>
      <circle class="cls-11" cx="1732.43" cy="504.99" r="49.34" transform="translate(-60.77 303.09) rotate(-9.83)"/>
      <path class="cls-11" d="m1820.84,451.99c-4.05,0-8.1-1.48-11.28-4.48-25.92-24.43-52.73-36.32-79.71-35.26-41.99,1.6-71.96,33.99-72.26,34.32-6.1,6.7-16.49,7.23-23.21,1.15-6.72-6.08-7.28-16.43-1.23-23.17,1.57-1.75,39.07-42.82,95.02-45.16,36.24-1.52,71.23,13.35,103.95,44.18,6.61,6.23,6.92,16.64.69,23.25-3.24,3.43-7.6,5.17-11.97,5.17Z"/>
      <path class="cls-11" d="m1872.01,380.72c-4.05,0-8.1-1.48-11.28-4.48-43.05-40.57-87.95-60.25-133.35-58.43-70.62,2.79-120.45,56.92-120.95,57.47-6.09,6.72-16.48,7.26-23.22,1.19-6.74-6.08-7.29-16.44-1.23-23.19,2.37-2.65,59.12-64.79,143.71-68.32,54.74-2.3,107.76,20.37,157.6,67.34,6.61,6.23,6.92,16.64.69,23.25-3.24,3.43-7.6,5.17-11.97,5.17Z"/>
      <path class="cls-11" d="m1925.93,311.27c-4.05,0-8.1-1.48-11.28-4.48-61.1-57.57-125-85.48-189.87-82.83-100.8,4.05-171.54,81.09-172.25,81.87-6.08,6.74-16.48,7.28-23.22,1.2-6.74-6.07-7.3-16.45-1.24-23.2,3.22-3.59,80.24-87.94,195.01-92.73,74.21-3.1,146.24,27.77,214.13,91.75,6.61,6.23,6.92,16.64.69,23.25-3.24,3.43-7.6,5.17-11.97,5.17Z"/>
    </g>
  </g>
</svg>